<?xml version="1.0" encoding="UTF-8"?> <svg xmlns="http://www.w3.org/2000/svg" width="183" height="32" viewBox="0 0 183 32" fill="none"><path d="M91.086 10.1574H89.0215V7.59736H91.086V7.01929C91.086 1.48639 95.2976 0.743164 97.4447 0.743164C98.1879 0.743164 98.6834 0.825745 98.6834 0.825745V3.55091C98.6834 3.55091 98.3531 3.46833 97.8576 3.46833C96.6189 3.46833 94.3066 3.88123 94.3066 7.01929V7.51478H98.2705V10.0748H94.3066V24.3612H91.086V10.1574ZM103.803 18.3328C103.803 22.7922 105.703 24.7741 109.501 24.7741C112.805 24.7741 115.034 22.5445 115.695 20.8928H115.778C115.778 20.8928 115.778 21.3057 115.778 21.8838V22.5445C115.778 23.7832 116.438 24.4438 117.925 24.4438H121.063V21.6361H119.659C119.163 21.6361 118.916 21.3883 118.916 20.8928V7.51478H115.695V15.4425C115.695 18.7457 113.631 21.8012 110.162 21.8012C107.52 21.8012 107.024 19.9019 107.024 17.5896V9.57929C107.024 8.17542 106.363 7.51478 104.877 7.51478H101.739V10.2399H103.143C103.638 10.2399 103.886 10.4877 103.886 10.9832V18.3328H103.803ZM126.431 11.0657C126.431 10.5703 126.183 10.3225 125.687 10.3225H124.283V7.59736H127.421C128.825 7.59736 129.569 8.258 129.569 9.49671V10.1574C129.569 10.6528 129.486 11.1483 129.486 11.1483H129.569C130.229 9.66187 132.211 7.26704 135.927 7.26704C139.891 7.26704 141.708 9.41413 141.708 13.7083V20.9754C141.708 21.4709 141.956 21.7186 142.451 21.7186H143.855V24.5264H140.634C139.148 24.5264 138.487 23.8657 138.487 22.3793V14.4516C138.487 12.0567 137.992 10.2399 135.349 10.2399C132.789 10.2399 130.642 11.9741 129.981 14.369C129.734 15.0296 129.651 15.7728 129.651 16.5986V24.5264H126.431V11.0657ZM147.571 16.0206C147.571 21.2232 150.461 24.8567 155.003 24.8567C159.132 24.8567 160.536 21.8012 160.536 21.8012H160.619C160.619 21.8012 160.619 22.1316 160.619 22.627C160.619 23.7832 161.197 24.4438 162.683 24.4438H165.821V21.6361H164.335C163.84 21.6361 163.592 21.3883 163.592 20.8928V3.05542C163.592 1.56897 162.931 0.908325 161.445 0.908325H158.224V3.71607H159.628C160.123 3.71607 160.371 3.96381 160.371 4.45929V8.67091C160.371 9.33155 160.454 9.82703 160.454 9.82703H160.371C160.371 9.82703 159.05 7.18445 155.169 7.18445C150.709 7.18445 147.571 10.6528 147.571 16.0206ZM155.581 22.049C152.774 22.049 150.792 19.6541 150.792 16.0206C150.792 12.2219 153.021 9.9922 155.664 9.9922C158.885 9.9922 160.454 12.9651 160.454 16.0206C160.454 20.2322 158.141 22.049 155.581 22.049ZM170.694 19.6541C170.694 19.6541 172.676 22.1316 175.814 22.1316C177.383 22.1316 178.787 21.4709 178.787 19.9845C178.787 16.929 169.62 17.2593 169.62 11.809C169.62 8.58833 172.428 7.10187 175.896 7.10187C177.961 7.10187 181.429 7.76252 181.429 10.4051V11.9741H178.539V11.1483C178.539 10.1574 177.052 9.74445 175.979 9.74445C174.08 9.74445 172.841 10.4051 172.841 11.7264C172.841 14.947 182.007 14.2038 182.007 19.9019C182.007 22.8748 179.365 24.8567 175.814 24.8567C171.354 24.8567 169.042 21.8838 169.042 21.8838L170.694 19.6541Z" fill="white"></path><path d="M69.7804 16.6812L69.6978 9.41406C69.6978 8.17536 69.0372 7.51471 67.5507 7.51471H64.4127V10.2399H65.8165C66.312 10.2399 66.5598 10.4876 66.5598 10.9831V24.3612H69.7804V16.6812ZM18.4152 16.1031C18.4152 21.2231 14.3688 24.9392 9.33137 24.9392C4.29395 24.9392 0.330078 21.2231 0.330078 16.1031C0.330078 13.2128 1.65137 10.8179 3.6333 9.2489V15.8554C3.6333 15.9379 3.6333 16.0205 3.6333 16.1031C3.6333 19.6541 6.1933 22.1315 9.33137 22.1315C12.552 22.1315 15.112 19.5715 15.112 16.1031C15.112 12.6347 12.552 10.1573 9.33137 10.1573C8.7533 10.1573 8.09266 10.2399 7.59718 10.405L8.67072 7.34955C8.91847 7.34955 9.16621 7.34955 9.33137 7.34955C14.3688 7.34955 18.4152 10.9831 18.4152 16.1031ZM33.032 7.18439C32.7017 7.18439 32.3714 7.26697 32.041 7.26697L30.9675 10.2399C31.463 10.0747 31.8759 9.99213 32.3714 9.99213C35.1791 9.99213 37.161 12.387 37.161 16.0205C37.161 19.8192 34.9314 22.0489 32.2888 22.0489C29.2333 22.0489 27.5817 19.1586 27.4991 16.2683L27.4165 10.1573C27.4165 10.1573 27.4165 9.74439 27.4165 9.2489C27.4165 8.17536 26.8385 7.51471 25.352 7.51471H22.2965V10.2399H23.7004C24.1959 10.2399 24.4436 10.4876 24.4436 10.9831V31.0502H27.6643V23.5354C27.6643 22.627 27.5817 22.0489 27.5817 22.0489H27.6643C27.6643 22.0489 29.0681 24.7741 32.8669 24.7741C37.2436 24.7741 40.5469 21.3057 40.5469 15.9379C40.4643 10.7354 37.574 7.18439 33.032 7.18439ZM83.9843 21.636V24.4437H80.7636C79.2772 24.4437 78.6165 23.7831 78.6165 22.2966V14.3689C78.6165 11.9741 78.121 10.1573 75.4785 10.1573C74.4049 10.1573 73.4139 10.4876 72.5881 10.9831L73.8269 7.51471C74.4875 7.26697 75.2307 7.18439 76.1391 7.18439C80.103 7.18439 81.9198 9.33148 81.9198 13.6257V20.8928C81.9198 21.3883 82.1675 21.636 82.663 21.636H83.9843ZM60.4488 15.0295C60.4488 10.6528 57.8888 7.10181 53.1817 7.10181C48.392 7.10181 44.6759 10.5702 44.6759 15.9379C44.6759 20.9754 48.3094 24.7741 53.6772 24.7741C57.641 24.7741 60.201 22.2966 60.201 22.2966L58.7972 19.9844C58.7972 19.9844 56.7327 21.9663 53.8423 21.9663C52.3559 21.9663 51.0346 21.4708 50.0436 20.5625V20.645V20.5625C49.2178 19.8192 48.5572 18.7457 48.2269 17.4244C47.7314 15.6902 48.0617 14.0386 48.392 13.0476C48.392 12.965 48.4746 12.8825 48.4746 12.7999C48.6398 12.5521 48.7223 12.387 48.7223 12.387C49.6307 10.6528 51.1998 9.74439 53.0991 9.74439C55.1636 9.74439 56.9804 11.2308 57.063 14.0386H52.3559L51.5301 16.4334H60.3662C60.3662 16.3508 60.4488 15.525 60.4488 15.0295Z" fill="#2CADEA"></path></svg> 